HIERARCHY
ROOT pelvis
{
	OFFSET 0.003123 -0.351407 0.012037
	CHANNELS 6 Xposition Yposition Zposition Zrotation Yrotation Xrotation 
	JOINT left_hip
	{
		OFFSET 0.058189 -0.092763 -0.026001
		CHANNELS 3 Zrotation Yrotation Xrotation
		JOINT left_knee
		{
			OFFSET 0.054695 -0.378753 -0.009396
			CHANNELS 3 Zrotation Yrotation Xrotation
			JOINT left_ankle
			{
				OFFSET -0.043453 -0.403059 -0.031876
				CHANNELS 3 Zrotation Yrotation Xrotation
				JOINT left_foot
				{
					OFFSET 0.047257 -0.057997 0.118216
					CHANNELS 3 Zrotation Yrotation Xrotation
					End Site
					{
						OFFSET 0.000000 0.000000 0.000000
					}
				}
			}
		}
	}
	JOINT right_hip
	{
		OFFSET -0.063267 -0.103908 -0.021250
		CHANNELS 3 Zrotation Yrotation Xrotation
		JOINT right_knee
		{
			OFFSET -0.044210 -0.362380 -0.016824
			CHANNELS 3 Zrotation Yrotation Xrotation
			JOINT right_ankle
			{
				OFFSET 0.015417 -0.410728 -0.020192
				CHANNELS 3 Zrotation Yrotation Xrotation
				JOINT right_foot
				{
					OFFSET -0.038812 -0.058328 0.119049
					CHANNELS 3 Zrotation Yrotation Xrotation
					End Site
					{
						OFFSET 0.000000 0.000000 0.000000
					}
				}
			}
		}
	}
	JOINT spine_1
	{
		OFFSET -0.002763 0.109891 -0.027618
		CHANNELS 3 Zrotation Yrotation Xrotation
		JOINT spine_2
		{
			OFFSET 0.009448 0.131853 -0.005940
			CHANNELS 3 Zrotation Yrotation Xrotation
			JOINT spine_3
			{
				OFFSET -0.011330 0.052235 0.028447
				CHANNELS 3 Zrotation Yrotation Xrotation
				JOINT neck
				{
					OFFSET -0.012164 0.165167 -0.031615
					CHANNELS 3 Zrotation Yrotation Xrotation
					JOINT head
					{
						OFFSET 0.024783 0.160452 0.020737
						CHANNELS 3 Zrotation Yrotation Xrotation
						End Site
						{
							OFFSET 0.000000 0.000000 0.000000
						}
					}
				}
				JOINT left_collar
				{
					OFFSET 0.046364 0.084944 -0.007220
					CHANNELS 3 Zrotation Yrotation Xrotation
					JOINT left_shoulder
					{
						OFFSET 0.119239 0.057728 -0.015461
						CHANNELS 3 Zrotation Yrotation Xrotation
						JOINT left_elbow
						{
							OFFSET 0.254123 -0.072151 -0.042459
							CHANNELS 3 Zrotation Yrotation Xrotation
							JOINT left_wrist
							{
								OFFSET 0.251987 0.023221 -0.002472
								CHANNELS 3 Zrotation Yrotation Xrotation
								JOINT left_index_1
								{
									OFFSET 0.101902 -0.008688 0.019351
									CHANNELS 3 Zrotation Yrotation Xrotation
									JOINT left_index_2
									{
										OFFSET 0.030149 -0.011154 0.001151
										CHANNELS 3 Zrotation Yrotation Xrotation
										JOINT left_index_3
										{
											OFFSET 0.006504 -0.021577 -0.002433
											CHANNELS 3 Zrotation Yrotation Xrotation
											End Site
											{
												OFFSET 0.000000 0.000000 0.000000
											}
										}
									}
								}
								JOINT left_middle_1
								{
									OFFSET 0.109398 -0.006328 -0.003981
									CHANNELS 3 Zrotation Yrotation Xrotation
									JOINT left_middle_2
									{
										OFFSET 0.026472 -0.015218 -0.004641
										CHANNELS 3 Zrotation Yrotation Xrotation
										JOINT left_middle_3
										{
											OFFSET 0.005022 -0.023347 -0.001911
											CHANNELS 3 Zrotation Yrotation Xrotation
											End Site
											{
												OFFSET 0.000000 0.000000 0.000000
											}
										}
									}
								}
								JOINT left_pinky_1
								{
									OFFSET 0.084047 -0.014539 -0.043750
									CHANNELS 3 Zrotation Yrotation Xrotation
									JOINT left_pinky_2
									{
										OFFSET 0.012124 -0.014448 -0.005375
										CHANNELS 3 Zrotation Yrotation Xrotation
										JOINT left_pinky_3
										{
											OFFSET 0.003798 -0.018853 0.000167
											CHANNELS 3 Zrotation Yrotation Xrotation
											End Site
											{
												OFFSET 0.000000 0.000000 0.000000
											}
										}
									}
								}
								JOINT left_ring_1
								{
									OFFSET 0.097444 -0.009268 -0.027345
									CHANNELS 3 Zrotation Yrotation Xrotation
									JOINT left_ring_2
									{
										OFFSET 0.023561 -0.016057 -0.001895
										CHANNELS 3 Zrotation Yrotation Xrotation
										JOINT left_ring_3
										{
											OFFSET 0.004257 -0.023548 0.000814
											CHANNELS 3 Zrotation Yrotation Xrotation
											End Site
											{
												OFFSET 0.000000 0.000000 0.000000
											}
										}
									}
								}
								JOINT left_thumb_1
								{
									OFFSET 0.040636 -0.017977 0.025611
									CHANNELS 3 Zrotation Yrotation Xrotation
									JOINT left_thumb_2
									{
										OFFSET 0.021637 -0.017639 0.011623
										CHANNELS 3 Zrotation Yrotation Xrotation
										JOINT left_thumb_3
										{
											OFFSET 0.024002 -0.008356 0.006548
											CHANNELS 3 Zrotation Yrotation Xrotation
											End Site
											{
												OFFSET 0.000000 0.000000 0.000000
											}
										}
									}
								}
							}
						}
					}
				}
				JOINT right_collar
				{
					OFFSET -0.047695 0.084339 -0.013400
					CHANNELS 3 Zrotation Yrotation Xrotation
					JOINT right_shoulder
					{
						OFFSET -0.102578 0.053524 -0.012669
						CHANNELS 3 Zrotation Yrotation Xrotation
						JOINT right_elbow
						{
							OFFSET -0.271150 -0.036492 -0.026467
							CHANNELS 3 Zrotation Yrotation Xrotation
							JOINT right_wrist
							{
								OFFSET -0.249267 -0.004533 -0.015325
								CHANNELS 3 Zrotation Yrotation Xrotation
								JOINT right_index_1
								{
									OFFSET -0.099881 -0.011783 0.019600
									CHANNELS 3 Zrotation Yrotation Xrotation
									JOINT right_index_2
									{
										OFFSET -0.030148 -0.011154 0.001151
										CHANNELS 3 Zrotation Yrotation Xrotation
										JOINT right_index_3
										{
											OFFSET -0.006505 -0.021577 -0.002432
											CHANNELS 3 Zrotation Yrotation Xrotation
											End Site
											{
												OFFSET 0.000000 0.000000 0.000000
											}
										}
									}
								}
								JOINT right_middle_1
								{
									OFFSET -0.107376 -0.009422 -0.003734
									CHANNELS 3 Zrotation Yrotation Xrotation
									JOINT right_middle_2
									{
										OFFSET -0.026472 -0.015218 -0.004641
										CHANNELS 3 Zrotation Yrotation Xrotation
										JOINT right_middle_3
										{
											OFFSET -0.005022 -0.023347 -0.001911
											CHANNELS 3 Zrotation Yrotation Xrotation
											End Site
											{
												OFFSET 0.000000 0.000000 0.000000
											}
										}
									}
								}
								JOINT right_pinky_1
								{
									OFFSET -0.082027 -0.017634 -0.043503
									CHANNELS 3 Zrotation Yrotation Xrotation
									JOINT right_pinky_2
									{
										OFFSET -0.012123 -0.014448 -0.005374
										CHANNELS 3 Zrotation Yrotation Xrotation
										JOINT right_pinky_3
										{
											OFFSET -0.003798 -0.018852 0.000167
											CHANNELS 3 Zrotation Yrotation Xrotation
											End Site
											{
												OFFSET 0.000000 0.000000 0.000000
											}
										}
									}
								}
								JOINT right_ring_1
								{
									OFFSET -0.095423 -0.012362 -0.027099
									CHANNELS 3 Zrotation Yrotation Xrotation
									JOINT right_ring_2
									{
										OFFSET -0.023561 -0.016057 -0.001895
										CHANNELS 3 Zrotation Yrotation Xrotation
										JOINT right_ring_3
										{
											OFFSET -0.004257 -0.023548 0.000816
											CHANNELS 3 Zrotation Yrotation Xrotation
											End Site
											{
												OFFSET 0.000000 0.000000 0.000000
											}
										}
									}
								}
								JOINT right_thumb_1
								{
									OFFSET -0.038613 -0.021074 0.025861
									CHANNELS 3 Zrotation Yrotation Xrotation
									JOINT right_thumb_2
									{
										OFFSET -0.021636 -0.017639 0.011623
										CHANNELS 3 Zrotation Yrotation Xrotation
										JOINT right_thumb_3
										{
											OFFSET -0.024004 -0.008353 0.006547
											CHANNELS 3 Zrotation Yrotation Xrotation
											End Site
											{
												OFFSET 0.000000 0.000000 0.000000
											}
										}
									}
								}
							}
						}
					}
				}
			}
		}
	}
}
MOTION
Frames: 5
Frame Time: 0.050000
0.001087 0.785088 -0.023170 -0.525721 5.119321 -20.761557 8.296633 -2.449837 -26.726202 -12.379069 0.070596 36.573535 3.401543 5.219220 -1.797045 0.000000 0.000000 0.000000 -16.011622 -0.950616 -24.226742 17.964997 -6.639724 39.376568 -5.471619 -6.164120 -9.239462 0.000000 0.000000 0.000000 -3.134776 -1.826344 32.186871 -3.397535 -0.065419 -8.728746 4.119394 0.503041 17.400217 0.772860 1.443609 -9.773467 0.000000 0.000000 0.000000 2.215986 -2.965150 1.634040 -14.706437 -18.048191 -5.614527 76.915794 -40.623268 -27.784939 7.872251 4.946334 -13.901473 -1.857901 4.892212 1.571991 46.994188 -2.787748 -29.463302 0.000000 0.000000 0.000000 2.119681 -16.877298 -9.345291 25.117949 -3.715362 -52.420744 0.000000 0.000000 0.000000 32.887291 -27.774599 -49.710185 22.378312 -0.284243 -8.580245 0.000000 0.000000 0.000000 6.501336 -26.764187 -19.952488 35.915605 4.790123 -37.831245 0.000000 0.000000 0.000000 37.657451 27.304351 15.216854 -19.144726 -10.673056 2.849325 0.000000 0.000000 0.000000 0.880192 0.068621 -0.058733 17.256957 11.750306 -1.693846 -73.038364 32.501923 -20.219470 -8.241226 -2.538755 -24.433908 -0.883571 -2.434300 0.708113 -0.722252 8.082243 -23.631713 0.000000 0.000000 0.000000 3.304504 17.980904 -9.251147 -5.692909 6.348788 -30.165968 0.000000 0.000000 0.000000 -17.137221 24.871032 -37.753492 -10.575821 1.142715 -6.731818 0.000000 0.000000 0.000000 2.496646 24.497875 -15.419610 -14.380530 2.547959 -26.754310 0.000000 0.000000 0.000000 -29.960533 -23.159827 7.334792 22.626758 11.010768 3.884715 0.000000 0.000000 0.000000 
0.000262 0.799271 0.012466 2.281255 5.540663 -21.155030 4.252401 -3.504311 -27.030870 -11.175265 -0.720134 43.067660 3.037699 6.022268 0.247925 0.000000 0.000000 0.000000 -10.499156 0.235272 -22.632190 4.054607 -0.822850 44.397760 -6.160948 -4.644492 -15.192877 0.000000 0.000000 0.000000 -7.151150 -1.017950 31.970211 -4.639562 0.039817 -10.751190 5.840764 2.244016 18.149387 0.371412 1.196955 -7.793974 0.000000 0.000000 0.000000 4.400530 -3.984462 2.347349 -23.998843 -19.765640 -6.158727 92.041896 -48.254342 -43.059651 4.443035 8.518576 -11.776606 -4.159451 3.946340 1.338309 25.229156 -7.041656 -42.801687 0.000000 0.000000 0.000000 -3.847198 -18.714353 -10.113558 18.104040 -6.815419 -55.723848 0.000000 0.000000 0.000000 36.730456 -28.386984 -53.809147 21.447583 -0.567714 -13.245786 0.000000 0.000000 0.000000 4.152792 -27.108115 -19.719035 26.538642 1.240264 -45.647097 0.000000 0.000000 0.000000 33.306237 25.136278 12.257240 -20.587805 -9.059641 3.652337 0.000000 0.000000 0.000000 -2.178189 3.536843 1.770162 25.424116 10.211887 -1.816399 -84.179524 36.841155 -27.517610 -1.570699 3.445605 -32.646777 24.003256 -2.538426 1.259436 63.196374 15.036862 -17.485326 0.000000 0.000000 0.000000 43.699467 34.654484 -4.277610 17.572671 13.751834 -34.639739 0.000000 0.000000 0.000000 7.772863 45.479587 -54.754338 0.060138 -1.186368 3.854984 0.000000 0.000000 0.000000 34.339548 49.518282 -12.892203 -4.634094 5.151174 -21.811016 0.000000 0.000000 0.000000 -23.533533 -25.209023 5.109837 23.799559 16.778596 -0.513458 0.000000 0.000000 0.000000 
-0.003036 0.795403 0.023026 1.971603 4.426656 -19.659395 7.079009 -2.673195 -26.570441 -13.756417 0.698289 40.595054 4.442462 6.551790 -2.919664 0.000000 0.000000 0.000000 -10.529735 0.387730 -23.134804 5.893439 -1.526729 43.279515 -7.154948 -5.088761 -18.593883 0.000000 0.000000 0.000000 -3.629646 -1.641450 31.786655 -6.458114 0.507530 -12.005514 3.374085 0.419385 20.922701 1.801693 0.697063 -5.919004 0.000000 0.000000 0.000000 7.700777 -8.691063 4.331149 -26.032352 -20.370867 -6.151912 94.518420 -48.057858 -43.530248 6.665290 8.933739 -15.504945 -12.534069 2.010812 1.109742 -43.716082 -12.208994 -19.225874 0.000000 0.000000 0.000000 -18.467567 -17.531935 -8.070327 -30.633084 -19.501082 -36.586302 0.000000 0.000000 0.000000 16.583524 -26.740583 -45.897258 1.478021 -10.216480 -31.589070 0.000000 0.000000 0.000000 -13.162403 -27.329657 -14.951720 -9.710219 -18.592964 -45.234920 0.000000 0.000000 0.000000 19.730427 21.177330 7.825188 -24.570010 -9.896268 4.250058 0.000000 0.000000 0.000000 -9.330917 0.358672 0.719130 37.887594 18.787763 -0.341866 -93.047042 41.855546 -37.942790 8.743213 5.596399 -37.360256 61.774288 -14.193537 -3.317063 65.126360 6.570308 -13.981306 0.000000 0.000000 0.000000 85.503904 20.748734 2.653671 -2.147542 5.549539 -37.352616 0.000000 0.000000 0.000000 50.899137 52.763068 -40.717321 -12.027765 -0.358283 0.307283 0.000000 0.000000 0.000000 75.965543 48.303123 5.681347 -10.011749 3.607503 -20.814976 0.000000 0.000000 0.000000 -10.044626 -25.827786 4.220879 -1.761899 20.686352 -21.658526 0.000000 0.000000 0.000000 
-0.001033 0.781219 0.000587 1.628248 6.380781 -18.068274 8.682363 -2.847163 -29.561764 -17.201606 1.837302 38.221706 4.183637 6.508481 -2.227830 0.000000 0.000000 0.000000 -13.633766 -0.536514 -27.177120 9.768728 -3.797490 44.280225 -7.182745 -6.605217 -16.746547 0.000000 0.000000 0.000000 0.362103 -2.128453 27.905840 -7.548286 0.704281 -13.463766 2.161725 -2.064885 24.380864 4.237003 -0.186656 -3.122476 0.000000 0.000000 0.000000 3.895222 -9.191080 4.430568 -24.507628 -26.661561 -6.677043 82.897241 -50.978141 -37.966785 7.185688 -1.846125 -15.054458 -5.784697 -1.702500 -0.094165 -11.322023 0.681408 0.829210 0.000000 0.000000 0.000000 -10.161984 -11.713849 -6.443008 -30.068016 -2.224773 -5.002319 0.000000 0.000000 0.000000 14.305753 -17.439513 -26.275905 -34.302384 -11.425633 -16.991164 0.000000 0.000000 0.000000 -6.473274 -16.268332 -10.248898 -33.845110 -12.325634 -14.896524 0.000000 0.000000 0.000000 11.975683 17.833167 8.496256 -16.200756 -11.367635 1.254639 0.000000 0.000000 0.000000 -5.164055 1.749827 1.157110 40.359011 15.973043 -1.171803 -104.113481 47.019395 -52.564372 4.473256 -5.468458 -27.270434 10.749161 0.791535 0.491661 18.148112 11.622115 -23.625001 0.000000 0.000000 0.000000 19.889854 16.092626 -7.268895 10.858952 12.313911 -30.828922 0.000000 0.000000 0.000000 -5.935410 23.963558 -38.124933 8.085947 7.992639 -18.457356 0.000000 0.000000 0.000000 16.289659 22.582516 -11.544324 4.590306 14.127903 -34.523088 0.000000 0.000000 0.000000 -14.736816 -12.705116 0.342282 17.875194 5.165137 2.922688 0.000000 0.000000 0.000000 
0.004620 0.763813 0.003227 1.754503 2.493194 -20.460502 10.822830 -1.845296 -29.699907 -19.578675 3.773053 43.276919 6.250354 9.281440 -4.378377 0.000000 0.000000 0.000000 -14.693458 -0.390950 -29.753457 13.044335 -5.122417 50.852434 -6.785063 -4.406029 -17.026344 0.000000 0.000000 0.000000 -0.081245 -1.989302 28.574415 -8.683435 0.711318 -14.429359 5.340540 -2.693654 27.509755 1.086637 0.367003 -3.704896 0.000000 0.000000 0.000000 4.375541 -8.708664 4.077473 -30.209980 -25.408611 -6.038900 79.257927 -56.133645 -38.499226 11.819663 -2.170839 -12.296436 -1.072347 0.865712 0.315656 7.283280 -0.943940 -2.867001 0.000000 0.000000 0.000000 -3.150688 -9.912579 -5.485060 -12.306936 0.354725 -0.152669 0.000000 0.000000 0.000000 17.916957 -18.819957 -26.707646 -16.436425 -3.353038 -7.439913 0.000000 0.000000 0.000000 -1.015856 -13.468235 -8.997612 -17.853468 -4.849223 -8.802513 0.000000 0.000000 0.000000 13.806993 17.362271 7.887636 -15.921870 -10.231741 1.594732 0.000000 0.000000 0.000000 -4.599996 2.826835 1.747804 42.114212 15.172189 -1.940766 -110.716827 51.937233 -66.282216 -2.026350 -2.287280 -21.195158 2.667601 1.715029 -0.338191 -26.190036 2.414047 -17.466739 0.000000 0.000000 0.000000 2.637542 11.088045 -6.241127 -19.075079 1.617959 -14.879242 0.000000 0.000000 0.000000 -20.227678 16.312007 -23.879145 -5.867936 0.587186 -3.155380 0.000000 0.000000 0.000000 0.181830 12.526458 -8.756142 -15.477390 0.576209 -16.542599 0.000000 0.000000 0.000000 -19.652250 -13.932847 0.672937 19.962952 7.381104 3.599546 0.000000 0.000000 0.000000 
